<svg width="70" height="70" viewBox="0 0 70 70" fill="none" xmlns="http://www.w3.org/2000/svg">
<circle cx="35" cy="35" r="35" fill="#111111"/>
<path d="M23 31C23 30.2928 23.281 29.6145 23.781 29.1144C24.2811 28.6143 24.9594 28.3333 25.6667 28.3333H26.9067C27.3456 28.3334 27.7777 28.2251 28.1648 28.0181C28.5518 27.8111 28.8817 27.5118 29.1253 27.1467L30.208 25.52C30.4516 25.1549 30.7815 24.8556 31.1686 24.6485C31.5556 24.4415 31.9878 24.3333 32.4267 24.3333H37.5733C38.0122 24.3333 38.4444 24.4415 38.8314 24.6485C39.2185 24.8556 39.5484 25.1549 39.792 25.52L40.8747 27.1467C41.1183 27.5118 41.4482 27.8111 41.8352 28.0181C42.2223 28.2251 42.6544 28.3334 43.0933 28.3333H44.3333C45.0406 28.3333 45.7189 28.6143 46.219 29.1144C46.719 29.6145 47 30.2928 47 31V43C47 43.7072 46.719 44.3855 46.219 44.8856C45.7189 45.3857 45.0406 45.6667 44.3333 45.6667H25.6667C24.9594 45.6667 24.2811 45.3857 23.781 44.8856C23.281 44.3855 23 43.7072 23 43V31Z" stroke="#FEFDFD" stroke-width="2" stroke-linecap="round" stroke-linejoin="round"/>
<path d="M39 36.3333C39 37.3942 38.5786 38.4116 37.8284 39.1618C37.0783 39.9119 36.0609 40.3333 35 40.3333C33.9391 40.3333 32.9217 39.9119 32.1716 39.1618C31.4214 38.4116 31 37.3942 31 36.3333C31 35.2725 31.4214 34.2551 32.1716 33.5049C32.9217 32.7548 33.9391 32.3333 35 32.3333C36.0609 32.3333 37.0783 32.7548 37.8284 33.5049C38.5786 34.2551 39 35.2725 39 36.3333V36.3333Z" stroke="#FEFDFD" stroke-width="2" stroke-linecap="round" stroke-linejoin="round"/>
</svg>
