<svg width="32" height="41" viewBox="0 0 32 41" fill="none" xmlns="http://www.w3.org/2000/svg">
<path d="M32 21.2356L30.3282 16.2244L32 11.2098L27.5918 8.0997L25.8876 3.09718L20.4295 3.07253L15.9998 0L11.5701 3.07443L6.11196 3.09908L4.40775 8.0997L0 11.2074L1.67182 16.222L0 21.2332L4.40775 24.3444L5.86133 28.6071L2.56358 35.6113L7.58744 36.3406L11.0469 40.9382L15.9998 36.1586L21.0163 41L23.9741 36.3445L29.5086 35.6223L25.9891 29.0457L27.5899 24.3448L32 21.2356ZM22.8771 34.7162L20.6731 38.1866L15.9997 33.6805L11.2647 38.25L8.61024 34.7197L5.21231 34.2271L7.50708 29.3525L11.5717 29.3701L15.9997 32.4465L20.4293 29.3686L24.114 29.3545L26.7157 34.215L22.8771 34.7162ZM24.6993 27.223L23.936 27.6033L19.8406 27.6209L15.9998 30.2869L12.1606 27.6209L7.61292 27.6033L7.39675 27.507L5.95211 23.265L2.13119 20.5673L3.58113 16.222L2.13119 11.8753L5.95211 9.18113L7.42925 4.84297L12.1606 4.82185L15.9998 2.15978L19.839 4.82425L24.5704 4.84538L26.0476 9.18354L29.8685 11.8777L28.4185 16.2244L29.8685 20.5697L26.0476 23.2638L24.6993 27.223Z" fill="#519259"/>
<path d="M15.9987 8.33719C11.4908 8.33719 7.82239 11.8745 7.82239 16.2248C7.82239 20.5716 11.4908 24.1125 15.9987 24.1125C20.5066 24.1125 24.175 20.5716 24.175 16.2248C24.175 11.8726 20.5066 8.33719 15.9987 8.33719ZM15.9987 22.3597C12.4922 22.3597 9.63935 19.6075 9.63935 16.2248C9.63935 12.8421 12.4922 10.09 15.9987 10.09C19.5052 10.09 22.3581 12.8421 22.3581 16.2248C22.3581 19.6079 19.5052 22.3597 15.9987 22.3597Z" fill="#519259"/>
</svg>
