<svg width="32" height="32" viewBox="0 0 32 32" fill="none" xmlns="http://www.w3.org/2000/svg">
<path d="M4 11.9999C4 11.2927 4.28095 10.6144 4.78105 10.1143C5.28115 9.6142 5.95942 9.33325 6.66667 9.33325H7.90667C8.34558 9.33332 8.77772 9.22504 9.16475 9.01804C9.55179 8.81103 9.88174 8.5117 10.1253 8.14659L11.208 6.51992C11.4516 6.15481 11.7815 5.85547 12.1686 5.64847C12.5556 5.44146 12.9878 5.33319 13.4267 5.33325H18.5733C19.0122 5.33319 19.4444 5.44146 19.8314 5.64847C20.2185 5.85547 20.5484 6.15481 20.792 6.51992L21.8747 8.14659C22.1183 8.5117 22.4482 8.81103 22.8352 9.01804C23.2223 9.22504 23.6544 9.33332 24.0933 9.33325H25.3333C26.0406 9.33325 26.7189 9.6142 27.219 10.1143C27.719 10.6144 28 11.2927 28 11.9999V23.9999C28 24.7072 27.719 25.3854 27.219 25.8855C26.7189 26.3856 26.0406 26.6666 25.3333 26.6666H6.66667C5.95942 26.6666 5.28115 26.3856 4.78105 25.8855C4.28095 25.3854 4 24.7072 4 23.9999V11.9999Z" stroke="#FEFDFD" stroke-width="2" stroke-linecap="round" stroke-linejoin="round"/>
<path d="M20 17.3333C20 18.3941 19.5786 19.4115 18.8284 20.1617C18.0783 20.9118 17.0609 21.3333 16 21.3333C14.9391 21.3333 13.9217 20.9118 13.1716 20.1617C12.4214 19.4115 12 18.3941 12 17.3333C12 16.2724 12.4214 15.255 13.1716 14.5048C13.9217 13.7547 14.9391 13.3333 16 13.3333C17.0609 13.3333 18.0783 13.7547 18.8284 14.5048C19.5786 15.255 20 16.2724 20 17.3333V17.3333Z" stroke="#FEFDFD" stroke-width="2" stroke-linecap="round" stroke-linejoin="round"/>
</svg>
