<svg width="35" height="32" viewBox="0 0 35 32" fill="none" xmlns="http://www.w3.org/2000/svg">
<path d="M6.16431 22.4005C8.29619 22.4005 10.0307 20.5751 10.0307 18.3316C10.0307 16.0883 8.29619 14.2632 6.16431 14.2632C4.03243 14.2632 2.29791 16.0886 2.29791 18.3316C2.29791 20.5754 4.03243 22.4005 6.16431 22.4005ZM6.16431 15.4907C7.65306 15.4907 8.86397 16.7652 8.86397 18.3316C8.86397 19.8983 7.65299 21.1727 6.16431 21.1727C4.67563 21.1727 3.46465 19.8982 3.46465 18.3316C3.46465 16.7651 4.67563 15.4907 6.16431 15.4907Z" fill="#519259"/>
<path d="M6.16436 23.5166C2.76537 23.5166 0 26.4271 0 30.0039C0 31.1045 0.850979 32 1.89668 32H10.4322C11.4779 32 12.3284 31.1044 12.3284 30.0039C12.3284 26.4271 9.56306 23.5166 6.16401 23.5166H6.16436ZM10.4325 30.7721H1.89703C1.49446 30.7721 1.16702 30.4275 1.16702 30.0039C1.16702 27.1039 3.40906 24.7444 6.16463 24.7444C8.92021 24.7444 11.1622 27.1039 11.1622 30.0039C11.1622 30.4275 10.8348 30.7721 10.4328 30.7721H10.4325Z" fill="#519259"/>
<path d="M17.5004 14.8095C19.6323 14.8095 21.3668 12.9841 21.3668 10.741C21.3668 8.49744 19.6323 6.67203 17.5004 6.67203C15.3685 6.67203 13.634 8.49744 13.634 10.741C13.634 12.9843 15.3685 14.8095 17.5004 14.8095ZM17.5004 7.89962C18.9891 7.89962 20.2 9.17405 20.2 10.7407C20.2 12.3069 18.9891 13.5816 17.5004 13.5816C16.0117 13.5816 14.8008 12.3072 14.8008 10.7407C14.8008 9.17398 16.0117 7.89962 17.5004 7.89962Z" fill="#519259"/>
<path d="M23.6643 22.4137C23.6643 18.8367 20.899 15.9261 17.4999 15.9261C14.1009 15.9261 11.3356 18.8363 11.3356 22.4137C11.3356 23.5143 12.1865 24.4098 13.2318 24.4098H21.7672C22.8135 24.4095 23.6639 23.5142 23.6639 22.4137H23.6643ZM21.7681 23.182H13.2319C12.8293 23.182 12.5025 22.8374 12.5025 22.4137C12.5025 19.5138 14.7445 17.1537 17.5001 17.1537C20.2556 17.1537 22.4977 19.5135 22.4977 22.4137C22.4977 22.8374 22.1702 23.182 21.7682 23.182H21.7681Z" fill="#519259"/>
<path d="M28.8354 22.4005C30.9673 22.4005 32.7019 20.5751 32.7019 18.3316C32.7019 16.0883 30.9673 14.2632 28.8354 14.2632C26.7035 14.2632 24.969 16.0886 24.969 18.3316C24.969 20.5754 26.7035 22.4005 28.8354 22.4005ZM28.8354 15.4907C30.3242 15.4907 31.5351 16.7652 31.5351 18.3316C31.5351 19.8983 30.3241 21.1727 28.8354 21.1727C27.3467 21.1727 26.1357 19.8982 26.1357 18.3316C26.1357 16.7651 27.3467 15.4907 28.8354 15.4907Z" fill="#519259"/>
<path d="M28.836 23.5166C25.437 23.5166 22.6716 26.4265 22.6716 30.0039C22.6716 31.1045 23.5226 32 24.5678 32H33.1033C34.1491 32 35 31.1044 35 30.0039C35 26.4271 32.2347 23.5166 28.8356 23.5166H28.836ZM33.1036 30.7721H24.5681C24.1655 30.7721 23.8387 30.4275 23.8387 30.0039C23.8387 27.1039 26.0807 24.7444 28.8363 24.7444C31.5918 24.7444 33.8339 27.1039 33.8339 30.0039C33.8339 30.4275 33.5065 30.7721 33.1039 30.7721H33.1036Z" fill="#519259"/>
<path d="M17.4999 4.40814C17.8221 4.40814 18.0831 4.13322 18.0831 3.79436V0.613781C18.0831 0.274917 17.8221 0 17.4999 0C17.1776 0 16.9166 0.274917 16.9166 0.613781V3.79436C16.9166 4.13294 17.1776 4.40814 17.4999 4.40814Z" fill="#519259"/>
<path d="M26.4944 8.329C26.6438 8.329 26.793 8.26933 26.907 8.14944L29.044 5.9005C29.2718 5.6607 29.2718 5.27216 29.044 5.03236C28.8161 4.79256 28.4469 4.79256 28.219 5.03236L26.082 7.2813C25.8542 7.5211 25.8542 7.90963 26.082 8.14944C26.1957 8.26905 26.3449 8.329 26.4944 8.329H26.4944Z" fill="#519259"/>
<path d="M8.09291 8.14937C8.20684 8.26927 8.35632 8.32894 8.50551 8.32894C8.65498 8.32894 8.80419 8.26927 8.91812 8.14937C9.14598 7.90957 9.14598 7.52101 8.91812 7.2812L6.78106 5.03218C6.5532 4.79237 6.18399 4.79237 5.95612 5.03218C5.72825 5.27198 5.72825 5.66054 5.95612 5.90035L8.09291 8.14937Z" fill="#519259"/>
<path d="M12.0928 5.04761C12.1858 5.2837 12.4031 5.42672 12.6318 5.42672C12.7061 5.42672 12.7818 5.41188 12.855 5.38019C13.1526 5.25059 13.2937 4.89145 13.1708 4.57796L12.0141 1.63952C11.891 1.32606 11.5495 1.17705 11.2518 1.30722C10.9543 1.43683 10.8132 1.79596 10.9361 2.10945L12.0928 5.04761Z" fill="#519259"/>
<path d="M22.1447 5.38013C22.2179 5.4121 22.2933 5.42666 22.3679 5.42666C22.5966 5.42666 22.8139 5.28393 22.9069 5.04755L24.0635 2.10914C24.1867 1.79568 24.0456 1.43684 23.7478 1.30692C23.4494 1.17674 23.109 1.32576 22.9855 1.63921L21.8289 4.57763C21.7057 4.89108 21.8473 5.24992 22.1446 5.38007L22.1447 5.38013Z" fill="#519259"/>
</svg>
