<svg width="34" height="34" viewBox="0 0 34 34" fill="none" xmlns="http://www.w3.org/2000/svg">
<path d="M17 1C8.1632 1 1 8.16203 1 16.9974C1 25.8327 8.1632 32.9948 17 32.9948C25.8368 32.9948 33 25.8327 33 16.9974C33 8.16203 25.8368 1 17 1Z" stroke="#519259" stroke-width="1.5" stroke-linecap="round" stroke-linejoin="round"/>
<path d="M4.63364 27.1493C4.63364 27.1493 8.20002 22.5964 17 22.5964C25.8 22.5964 29.3679 27.1493 29.3679 27.1493" stroke="#519259" stroke-width="1.5" stroke-linecap="round" stroke-linejoin="round"/>
<path d="M17.0004 16.9974C18.2734 16.9974 19.4943 16.4917 20.3945 15.5917C21.2947 14.6917 21.8004 13.471 21.8004 12.1982C21.8004 10.9253 21.2947 9.70463 20.3945 8.80461C19.4943 7.90458 18.2734 7.39896 17.0004 7.39896C15.7273 7.39896 14.5064 7.90458 13.6063 8.80461C12.7061 9.70463 12.2004 10.9253 12.2004 12.1982C12.2004 13.471 12.7061 14.6917 13.6063 15.5917C14.5064 16.4917 15.7273 16.9974 17.0004 16.9974V16.9974Z" stroke="#519259" stroke-width="1.5" stroke-linecap="round" stroke-linejoin="round"/>
</svg>
