<svg width="27" height="35" viewBox="0 0 27 35" fill="none" xmlns="http://www.w3.org/2000/svg">
<path d="M23.0038 17.6059C21.6159 16.4294 19.9459 15.5863 18.2029 15.1391C20.8386 14.4168 23.2774 12.8497 24.7998 10.0445C25.8922 8.03015 26.4797 5.66995 26.4527 3.39649C26.4503 3.17981 26.353 2.97161 26.1891 2.82893C26.0153 2.67774 25.8195 2.50672 23.9944 2.73403C22.609 2.91 21.2931 3.29735 20.0833 3.88508C17.4437 5.16684 15.47 7.34821 14.5759 9.94072C14.4996 9.62383 14.4141 9.30978 14.318 8.99959C13.0362 4.87751 9.52767 1.82445 4.93208 0.833383C4.89589 0.825239 1.19261 0.141538 0.562186 0.648556C0.382661 0.793374 0.268066 1.02882 0.268066 1.25862C0.268066 2.60581 0.48058 4.0451 0.900648 5.53642C2.31199 10.5493 5.82366 14.0132 10.6181 15.1897C8.94634 15.6486 7.35017 16.4735 6.01431 17.6055C4.7215 18.7013 3.90153 19.9034 3.57655 21.1791C3.16748 22.782 3.52262 24.6008 4.57563 26.3003C6.6955 29.7213 10.3328 32.1675 13.5752 34.1914C13.8629 34.3709 14.1865 34.4615 14.5097 34.4615C14.8325 34.4615 15.1557 34.3716 15.4435 34.1921C18.6866 32.1679 22.3235 29.7217 24.4437 26.3007C25.4968 24.6012 25.8515 22.7828 25.4428 21.1795C25.1175 19.9042 24.2972 18.7017 23.0043 17.6059L23.0038 17.6059ZM15.8016 11.1732L15.8382 11.0327C16.4846 8.56269 18.2756 6.45673 20.7509 5.25465C21.811 4.73984 22.9676 4.39993 24.18 4.24591C24.2719 4.23564 24.5936 4.20873 24.9087 4.18607C24.8065 5.94822 24.2928 7.78126 23.4579 9.31934C21.6847 12.5874 18.4118 13.9027 15.2102 14.0921C15.2864 13.1365 15.5578 12.1023 15.8016 11.1732L15.8016 11.1732ZM2.36944 5.12538C2.06326 4.03769 1.87806 2.98643 1.81669 1.99011C2.7402 2.06163 4.34918 2.27336 4.60885 2.32222C8.65948 3.1957 11.7443 5.86112 12.8608 9.45132C13.3266 10.9512 13.5154 12.5455 13.6293 14.0974C13.0577 14.068 12.4971 14.0057 11.9568 13.9158C7.21362 13.123 3.71938 9.91904 2.36926 5.1254L2.36944 5.12538ZM14.6336 32.9014C14.5559 32.9503 14.4623 32.9503 14.3846 32.9014C12.2097 31.5442 9.85463 29.9914 7.96927 28.1002C9.98233 26.878 12.2342 26.2283 14.5275 26.2283C16.8116 26.2283 19.0556 26.8731 21.0634 28.0865C19.1752 29.9836 16.8138 31.5403 14.6336 32.9014H14.6336ZM23.145 25.4997C22.8349 26.0007 22.4819 26.4787 22.1019 26.9404C19.7937 25.482 17.1871 24.7048 14.5269 24.7048C11.8568 24.7048 9.2423 25.487 6.92843 26.9549C6.54349 26.489 6.18692 26.0063 5.87295 25.4997C5.05161 24.1744 4.75361 22.7369 5.05516 21.555C5.30067 20.5919 5.95597 19.654 7.00256 18.7667C8.86203 17.1907 11.2937 16.2953 13.6427 16.2953C13.9092 16.2953 14.1749 16.3069 14.4382 16.3303C14.4836 16.3342 14.5357 16.3342 14.5811 16.3303C17.1665 16.103 19.9462 17.0119 22.0167 18.7666C23.0633 19.6539 23.7186 20.5919 23.9641 21.5549C24.2646 22.7368 23.9663 24.1743 23.1449 25.4996L23.145 25.4997Z" fill="#FFD741"/>
</svg>
