<svg width="32" height="30" viewBox="0 0 32 30" fill="none" xmlns="http://www.w3.org/2000/svg">
<path d="M27.0443 29.0497H2.67C1.97232 29.0533 1.30101 28.7849 0.798296 28.301C0.548583 28.0652 0.349337 27.7812 0.212109 27.4662C0.0752098 27.1516 0.00296413 26.8122 0 26.4689V8.96398C0.0039585 8.62064 0.0768616 8.28191 0.213755 7.96724C0.350983 7.65258 0.549571 7.36861 0.798296 7.1318C1.14533 6.79538 1.57812 6.56022 2.04948 6.45204L21.0047 0.137952C21.6516 -0.0780812 22.3562 -0.0391657 22.975 0.246129C23.2904 0.386307 23.5738 0.588814 23.809 0.8408C24.0445 1.09312 24.2266 1.38995 24.3447 1.71385L26.0392 6.38315H27.0246C27.7219 6.37953 28.3935 6.648 28.8963 7.13185C29.1437 7.36899 29.3409 7.6533 29.4762 7.96794C29.6114 8.2826 29.6824 8.62165 29.6847 8.96402V12.9044H29.783C30.066 12.8968 30.3477 12.9469 30.6106 13.0522C30.8798 13.1508 31.1249 13.3051 31.3298 13.5053C31.5445 13.7006 31.7154 13.939 31.8325 14.2046C31.9473 14.4651 32.0044 14.7474 31.9997 15.0321V20.3812C31.9984 20.6645 31.9404 20.9448 31.8285 21.2054C31.7167 21.4659 31.5541 21.7014 31.3496 21.898C30.9359 22.2931 30.3847 22.5121 29.8127 22.5088H29.6847V26.4489C29.6837 26.7932 29.6134 27.1339 29.4782 27.4502C29.3426 27.7668 29.145 28.0528 28.8963 28.2909C28.3985 28.7711 27.7358 29.0422 27.044 29.0495L27.0443 29.0497ZM2.35417 7.90061C2.15525 7.95338 1.97217 8.05496 1.82241 8.19613C1.71586 8.29442 1.63075 8.41315 1.57137 8.54541C1.51199 8.67734 1.48032 8.81982 1.47735 8.96461V26.4695C1.48032 26.6143 1.51199 26.7568 1.57137 26.8891C1.63075 27.021 1.71585 27.1397 1.82241 27.238C2.05035 27.4554 2.35417 27.5758 2.66951 27.5728H27.0438C27.3591 27.5758 27.6629 27.4554 27.8912 27.238C27.9961 27.1391 28.0799 27.0203 28.1376 26.8881C28.195 26.7562 28.2254 26.6137 28.226 26.4695V22.5292H22.2358C22.085 22.5391 21.9336 22.5391 21.7829 22.5292C21.0617 22.4704 20.3628 22.2554 19.7333 21.8989L19.4872 21.7511C18.6711 21.2323 18.0295 20.481 17.6449 19.5937C17.2619 18.7167 17.1619 17.7424 17.3589 16.806C17.5159 16.1065 17.824 15.4495 18.2615 14.8812C18.6989 14.3129 19.2551 13.8469 19.8911 13.5157C20.3608 13.2713 20.8662 13.1018 21.3887 13.0134C21.6704 12.955 21.9584 12.9319 22.2456 12.9445H28.2655V9.00443C28.2645 8.8603 28.2345 8.71782 28.1768 8.58556C28.1194 8.45363 28.0353 8.33457 27.9304 8.23595C27.7024 8.01827 27.3986 7.89822 27.0833 7.90085H2.68876C2.58089 7.88667 2.47137 7.88667 2.3635 7.90085L2.35417 7.90061ZM22.2358 21.042H29.8714C30.0614 21.0466 30.2458 20.9757 30.3837 20.8447C30.4451 20.786 30.4939 20.7158 30.5279 20.6379C30.5615 20.5601 30.5796 20.4767 30.5806 20.3916V15.0428C30.5836 14.961 30.5664 14.8802 30.5315 14.8063C30.5011 14.7229 30.4503 14.6483 30.3837 14.5896C30.3124 14.5293 30.2326 14.4798 30.1472 14.4419C30.0551 14.4105 29.9588 14.3937 29.8615 14.3927H22.2358C21.3164 14.3957 20.4326 14.7476 19.763 15.3776C19.4424 15.6771 19.1867 16.0395 19.0119 16.4419C18.8371 16.8443 18.7467 17.2783 18.7467 17.7173C18.7467 18.1559 18.8371 18.59 19.0119 18.9924C19.1867 19.3948 19.4424 19.7572 19.763 20.0567C20.4297 20.6909 21.3154 21.0438 22.2358 21.0419L22.2358 21.042ZM6.97516 6.38417H24.5024L22.9948 2.21716C22.9427 2.07831 22.8638 1.951 22.7622 1.84282C22.661 1.73464 22.5389 1.64756 22.4037 1.58688C22.1061 1.46947 21.7752 1.46947 21.4777 1.58688L6.97516 6.38417ZM24.3841 18.4617H21.606V16.9841H24.3841V18.4617Z" fill="#519259"/>
<path d="M12.9101 18.1982C12.5251 17.8555 12.0619 17.6099 11.5784 17.4797C12.3095 17.2693 12.986 16.8128 13.4083 15.9957C13.7113 15.409 13.8743 14.7216 13.8668 14.0594C13.8661 13.9963 13.8391 13.9356 13.7937 13.8941C13.7454 13.85 13.6911 13.8002 13.1849 13.8664C12.8006 13.9177 12.4356 14.0305 12.1 14.2017C11.3678 14.575 10.8203 15.2104 10.5723 15.9655C10.5511 15.8732 10.5274 15.7817 10.5007 15.6914C10.1452 14.4907 9.17194 13.6015 7.89717 13.3128C7.88713 13.3104 6.85988 13.1113 6.68501 13.259C6.63521 13.3012 6.60342 13.3697 6.60342 13.4367C6.60342 13.8291 6.66237 14.2483 6.7789 14.6827C7.17039 16.1428 8.14449 17.1517 9.47441 17.4944C9.01069 17.6281 8.56793 17.8684 8.19737 18.1981C7.83876 18.5172 7.61131 18.8674 7.52116 19.2389C7.40769 19.7058 7.5062 20.2356 7.7983 20.7306C8.38633 21.7271 9.39528 22.4396 10.2947 23.0291C10.3745 23.0814 10.4642 23.1078 10.5539 23.1078C10.6435 23.1078 10.7331 23.0816 10.8129 23.0293C11.7125 22.4397 12.7214 21.7272 13.3095 20.7307C13.6016 20.2357 13.7 19.7061 13.5866 19.2391C13.4964 18.8676 13.2689 18.5174 12.9102 18.1982L12.9101 18.1982ZM10.9123 16.3245L10.9224 16.2836C11.1017 15.5641 11.5985 14.9507 12.2852 14.6006C12.5792 14.4506 12.9 14.3516 13.2363 14.3068C13.2618 14.3038 13.3511 14.296 13.4385 14.2894C13.4101 14.8026 13.2676 15.3365 13.0361 15.7845C12.5442 16.7364 11.6363 17.1195 10.7482 17.1747C10.7694 16.8964 10.8447 16.5951 10.9123 16.3245L10.9123 16.3245ZM7.18632 14.5629C7.10139 14.2461 7.05002 13.9399 7.033 13.6497C7.28917 13.6706 7.73548 13.7322 7.80751 13.7465C8.93112 14.0009 9.78681 14.7772 10.0965 15.823C10.2257 16.2598 10.2781 16.7242 10.3097 17.1763C10.1511 17.1677 9.99564 17.1495 9.84576 17.1233C8.53005 16.8924 7.56078 15.9592 7.18627 14.563L7.18632 14.5629ZM10.5883 22.6533C10.5667 22.6676 10.5407 22.6676 10.5192 22.6533C9.91592 22.258 9.26264 21.8057 8.73966 21.2549C9.29806 20.8989 9.9227 20.7097 10.5588 20.7097C11.1924 20.7097 11.8149 20.8975 12.3718 21.2509C11.8481 21.8035 11.193 22.2569 10.5883 22.6533H10.5883ZM12.9492 20.4974C12.8632 20.6433 12.7653 20.7826 12.6599 20.9171C12.0196 20.4923 11.2966 20.2659 10.5587 20.2659C9.81802 20.2659 9.09279 20.4937 8.45094 20.9213C8.34416 20.7856 8.24525 20.645 8.15816 20.4974C7.93033 20.1114 7.84767 19.6927 7.93132 19.3484C7.99942 19.0679 8.18119 18.7947 8.4715 18.5363C8.9873 18.0772 9.66182 17.8164 10.3134 17.8164C10.3873 17.8164 10.461 17.8198 10.5341 17.8266C10.5467 17.8278 10.5611 17.8278 10.5737 17.8266C11.2909 17.7604 12.0619 18.0252 12.6363 18.5363C12.9266 18.7947 13.1084 19.0679 13.1765 19.3484C13.2598 19.6927 13.1771 20.1114 12.9492 20.4974L12.9492 20.4974Z" fill="#519259"/>
</svg>
